<?xml version="1.0" encoding="UTF-8" standalone="no"?>
<svg
   version="1.1"
   width="84.472961"
   height="87.059593"
   id="svg10"
   sodipodi:docname="favicon.svg"
   inkscape:version="1.2.2 (732a01da63, 2022-12-09)"
   inkscape:export-filename="Donut_Motors_raw.webp"
   inkscape:export-xdpi="96"
   inkscape:export-ydpi="96"
   xmlns:inkscape="http://www.inkscape.org/namespaces/inkscape"
   xmlns:sodipodi="http://sodipodi.sourceforge.net/DTD/sodipodi-0.dtd"
   xmlns="http://www.w3.org/2000/svg"
   xmlns:svg="http://www.w3.org/2000/svg">
  <defs
     id="defs14">
    <linearGradient
       id="linearGradient2773"
       inkscape:swatch="solid">
      <stop
         style="stop-color:#333333;stop-opacity:1;"
         offset="0"
         id="stop2771" />
    </linearGradient>
    <rect
       x="92.566704"
       y="34.608273"
       width="148.64922"
       height="105.19499"
       id="rect906" />
    <rect
       x="92.566704"
       y="34.608273"
       width="148.64922"
       height="105.19499"
       id="rect906-4" />
    <rect
       x="92.566704"
       y="34.608273"
       width="148.64922"
       height="105.19499"
       id="rect2850" />
  </defs>
  <sodipodi:namedview
     id="namedview12"
     pagecolor="#ffffff"
     bordercolor="#000000"
     borderopacity="0.25"
     inkscape:showpageshadow="2"
     inkscape:pageopacity="0.0"
     inkscape:pagecheckerboard="0"
     inkscape:deskcolor="#d1d1d1"
     showgrid="false"
     inkscape:zoom="4.796541"
     inkscape:cx="82.663736"
     inkscape:cy="57.22874"
     inkscape:window-width="1920"
     inkscape:window-height="1001"
     inkscape:window-x="-9"
     inkscape:window-y="-9"
     inkscape:window-maximized="1"
     inkscape:current-layer="svg10" />
  <path
     fill="#febe34"
     d="M 41.236479,0 C 18.460197,0 0,19.48684 0,43.529798 c 0,24.042958 18.460197,43.529799 41.236479,43.529799 22.776282,0 41.23648,-19.486841 41.23648,-43.529799 C 82.472959,19.48684 64.012761,0 41.236479,0 Z m 0,57.872866 c -7.505039,0 -13.58742,-6.420645 -13.58742,-14.343068 0,-7.922423 6.082381,-14.335813 13.58742,-14.335813 7.505039,0 13.58742,6.420645 13.58742,14.335813 0,7.922423 -6.082381,14.343068 -13.58742,14.343068 z"
     id="path312"
     style="display:inline;fill:#ffffff;fill-opacity:1;stroke-width:0.706127" />
  <path
     fill="#febe34"
     d="M 43.236479,0 C 20.460197,0 2,19.48684 2,43.529798 c 0,24.042958 18.460197,43.529799 41.236479,43.529799 22.776282,0 41.23648,-19.486841 41.23648,-43.529799 C 84.472959,19.48684 66.012761,0 43.236479,0 Z m 0,57.872866 c -7.505039,0 -13.58742,-6.420645 -13.58742,-14.343068 0,-7.922423 6.082381,-14.335813 13.58742,-14.335813 7.505039,0 13.58742,6.420645 13.58742,14.335813 0,7.922423 -6.082381,14.343068 -13.58742,14.343068 z"
     id="path2"
     style="display:inline;stroke-width:0.706127" />
  <path
     fill-rule="evenodd"
     clip-rule="evenodd"
     fill="#fe4dd1"
     d="M 76.628521,35.617049 C 75.711584,34.758954 76.296863,33.71551 76.420422,32.726983 76.882142,28.855256 75.666061,26.164269 72.43402,24.599101 71.224443,24.015597 70.619654,23.233014 70.066891,22.045409 67.133991,15.743555 63.301388,11.288591 58.697192,6.8196286 58.150931,6.2910421 57.025894,6.4557963 56.206503,6.1949349 51.615313,4.7464703 46.907066,6.1812053 42.101274,5.0210603 35.708724,3.4764886 29.933969,7.5404294 24.516885,11.123837 c -0.08455,0.05492 -0.156075,0.164754 -0.201597,0.260861 -1.118533,2.47818 -3.245047,3.542219 -5.508127,4.468962 -1.625776,0.665882 -3.609222,1.45533 -3.745787,3.418653 -0.312149,4.52388 -2.289092,8.107287 -4.688737,11.642641 -0.9884721,1.462195 -1.3201302,3.3706 -1.2095772,5.244681 0.078034,1.276846 0.084544,2.567422 -0.474726,3.700108 -1.0665094,2.155537 -0.6177948,4.249289 0.2211051,6.240072 0.5007384,1.194469 0.747857,2.354614 0.812887,3.617731 0.182087,3.425518 1.3981681,6.274395 3.7978121,8.711387 1.924919,1.956457 3.7718,4.111994 5.169967,6.500932 2.412651,4.118859 4.545668,8.285771 9.995269,8.31323 0.708838,0.0069 1.456694,0.89242 2.107005,1.46906 3.453147,3.047956 6.893288,5.800728 11.913683,4.166913 2.133018,-0.693342 4.279042,0.171619 6.158438,1.496518 1.989949,0.08238 3.966893,-0.0069 5.904818,-0.569775 1.255098,-0.659018 2.581731,-1.194469 3.752289,-1.997647 2.035472,-1.407276 4.981377,-1.695597 5.911321,-4.448367 0.910434,-2.697853 0.379456,-2.718717 2.551492,-4.036751 2.965414,-1.798568 4.487141,-4.599393 6.073898,-7.709131 2.107005,-4.132589 3.602719,-8.436797 4.578184,-12.898894 0.936447,-4.372855 3.290567,-9.07522 -1.007981,-13.097972 z m -17.248504,3.913186 c -0.05852,0.954202 -0.455217,1.860351 -0.936447,2.759635 -0.07803,0.274591 2.078717,2.968607 1.909636,3.002931 l -2.565296,2.866175 c 2.015962,3.089143 1.292965,6.755197 -2.179692,8.663602 -2.776825,1.523977 -5.625184,0.796312 -8.454033,0.768853 -0.01951,0.0206 -0.03902,0.04119 -0.05202,0.04119 -0.136566,0.04806 -0.279633,0.08238 -0.416199,0.123565 -0.03902,0.116702 -0.08454,0.192214 -0.130062,0.192214 -3.453147,1.118957 -7.107891,1.723056 -10.535026,0.844366 -4.005911,-1.03658 -9.211851,-6.580012 -8.886697,-11.275511 0.182087,-2.62234 -0.912355,-7.001791 -0.255542,-9.493701 1.073012,-4.098264 5.663079,-6.964439 9.272301,-8.920897 0.832397,-0.521721 1.768844,-0.947337 2.841856,-1.242522 2.867868,-0.803178 5.410581,-1.963323 8.727164,-1.572031 5.898314,0.679611 9.923734,7.510053 11.321901,10.043151 0.351167,0.308914 0.591782,1.02285 0.591782,1.846621 0.0065,0.521723 -0.09755,0.995392 -0.253621,1.35236 z"
     id="path4"
     style="display:inline;opacity:0.6;fill:#fe34cc;fill-opacity:1;stroke-width:0.668149"
     sodipodi:nodetypes="scccccccccccccccccccccccccccssccccccccccccccccss" />
</svg>
